<svg width="250" height="42" viewBox="0 0 250 42" fill="none" xmlns="http://www.w3.org/2000/svg">
<path d="M18.4401 41.5967L16.9389 41.3977C17.6824 35.787 17.6811 28.1949 16.9348 17.5065C16.6276 14.2511 18.1305 10.6965 20.7656 8.44865C22.9377 6.59569 25.5952 5.8986 28.0569 6.53625C29.7984 6.98731 31.3237 7.47304 32.5906 7.97969L32.0283 9.386C30.8208 8.90287 29.3567 8.43736 27.677 8.0024C25.6717 7.48295 23.566 8.05056 21.7485 9.60079C19.4751 11.5403 18.1777 14.5908 18.4433 17.3724L18.4448 17.3916C19.2096 28.3373 19.2081 35.8025 18.4401 41.5967Z" fill="#D6BA43"/>
<path d="M15.3404 40.5381L13.8393 40.3372L14.5897 40.4376L13.839 40.3383C13.8435 40.3037 14.2738 36.834 12.7822 32.7832C10.7936 27.3825 6.49679 23.5411 0.0117188 21.3659L0.493218 19.93C4.31331 21.2114 7.47376 23.0872 9.88663 25.5054C11.8285 27.4517 13.2894 29.7473 14.2285 32.3284C15.8262 36.7188 15.3609 40.3842 15.3404 40.5381Z" fill="#D6BA43"/>
<path d="M16.0367 41.1465L14.7576 40.3356C14.8924 40.1226 18.1334 35.1077 24.9234 33.7417C25.1687 33.6799 27.4387 33.1128 28.9621 32.8705L29.1999 34.3663C27.6886 34.6066 25.2997 35.2087 25.276 35.2147L25.2389 35.2231C19.0934 36.452 16.0666 41.0997 16.0367 41.1465Z" fill="#D6BA43"/>
<path d="M26.7544 40.7949L25.2437 40.6877C25.2525 40.5624 25.4805 37.5845 27.3421 34.6665C29.0745 31.9513 32.5854 28.796 39.47 29.1811L39.3855 30.6932C34.4681 30.4182 30.8566 32.0129 28.6494 35.4334C26.9751 38.0288 26.7565 40.7677 26.7544 40.7949Z" fill="#D6BA43"/>
<path d="M27.3808 26.3916L26.2329 25.4036C29.9398 21.0971 33.9257 19.8319 36.6169 19.5288C39.5567 19.1979 41.6116 19.9025 41.6976 19.9328L41.1986 21.3626C41.1801 21.3563 39.3276 20.7323 36.7123 21.0423C33.219 21.4568 30.0793 23.2565 27.3808 26.3916Z" fill="#D6BA43"/>
<path d="M12.213 28.9043L10.7065 28.748L11.4598 28.8261L10.7065 28.7489C10.7091 28.7229 10.9601 26.1064 10.1269 22.4846C9.36202 19.1586 7.49723 14.2727 2.95703 9.88391L4.00969 8.79507C8.83775 13.4621 10.8117 18.6656 11.6176 22.209C12.4934 26.0602 12.2248 28.7899 12.213 28.9043Z" fill="#D6BA43"/>
<path d="M10.5721 10.375C6.92395 10.375 4.22983 9.28354 4.10352 9.23153L4.67993 7.83101C4.71172 7.84408 7.91511 9.13272 11.8999 8.80688C17.1747 8.3755 21.2855 5.44594 24.1184 0.0995312L25.4567 0.8086C21.5924 8.10167 15.9845 10.0072 11.9606 10.3213C11.4855 10.3584 11.0212 10.375 10.5721 10.375Z" fill="#D6BA43"/>
<path d="M27.4631 26.2515C27.4631 26.2515 26.7399 30.8339 21.6586 32.4609C21.6586 32.4609 20.829 27.885 26.325 25.3428L27.4631 26.2515Z" fill="#D6BA43"/>
<path d="M29.2808 32.4108C29.2808 32.4108 28.271 28.675 30.7952 26.3527C30.7952 26.3527 32.3098 27.8672 31.3001 30.7954C31.3001 30.7954 31.1506 31.9276 31.0234 31.9168C30.8961 31.9059 29.9875 32.4108 29.9875 32.5118C29.9875 32.6127 29.2808 32.4108 29.2808 32.4108Z" fill="#D6BA43"/>
<path d="M21.506 3.9377C21.506 3.9377 19.0828 0.403794 14.7412 3.23098C14.7412 3.23098 16.0538 6.36088 19.5877 5.85602L21.506 4.54343L21.8089 4.13956L21.506 3.9377Z" fill="#D6BA43"/>
<path d="M4.64458 21.708C4.64458 21.708 6.36103 18.1741 2.52426 16.3568C2.52426 16.3568 0.807822 19.2848 2.22143 20.4964C2.22143 20.4964 2.12043 20.9003 2.32243 21.0013C2.52426 21.1023 3.43299 21.607 3.53399 21.607C3.63485 21.607 4.64458 21.708 4.64458 21.708Z" fill="#D6BA43"/>
<path d="M13.5778 34.959C13.5778 34.959 10.6825 34.391 10.7266 31.645C10.7266 31.645 13.221 31.9627 13.5635 33.1984C13.5635 33.1984 13.8634 33.3127 13.8646 33.4595C13.8658 33.6062 13.9046 34.2873 13.8718 34.3398C13.8389 34.3922 13.5778 34.959 13.5778 34.959Z" fill="#D6BA43"/>
<path d="M5.14932 23.7276C5.04846 23.8286 2.1203 24.6364 1.0097 26.0498L0.605713 24.6364C0.605713 24.6364 2.52414 22.8189 3.73587 22.9199C4.94732 23.0209 5.14932 23.7276 5.14932 23.7276Z" fill="#D6BA43"/>
<path d="M12.8728 29.5156L11.3596 29.451C11.3653 29.3186 11.5192 26.1724 13.6455 23.0026C14.8971 21.137 16.5727 19.6515 18.6257 18.5872C21.1577 17.2748 24.2672 16.6092 27.8671 16.6092V18.1236C21.8441 18.1236 17.4955 20.0299 14.9417 23.7894C13.0268 26.6085 12.8741 29.4869 12.8728 29.5156Z" fill="#D6BA43"/>
<path d="M27.564 16.6595C27.564 16.6595 30.0239 14.8197 32.674 16.304C32.674 16.304 30.6864 19.0123 27.564 18.1739V16.6595Z" fill="#D6BA43"/>
<path d="M32.2146 9.7567C32.2146 9.7567 34.1414 13.6565 38.2743 12.0745C38.2743 12.0745 37.6905 7.88764 33.4052 7.9764L31.9043 7.98603L31.5151 8.72207L32.2146 9.7567Z" fill="#D6BA43"/>
<path d="M41.3966 22.0107C41.3966 22.0107 39.882 21.506 39.4783 21.0012C39.0744 20.4963 39.882 19.0827 41.1946 19.0827C42.5072 19.0827 41.5986 19.1837 41.5986 19.1837L41.6995 22.0107H41.3966Z" fill="#D6BA43"/>
<path d="M20.9003 0.505157C9.65422 0.505157 0.504891 9.65449 0.504891 20.9005C0.504891 32.1466 9.65422 41.2959 20.9003 41.2959C32.1465 41.2959 41.2958 32.1466 41.2958 20.9005C41.2958 9.65449 32.1465 0.505157 20.9003 0.505157ZM20.9003 41.8008C9.37585 41.8008 0 32.425 0 20.9005C0 9.37612 9.37585 0.000293732 20.9003 0.000293732C32.4248 0.000293732 41.8007 9.37612 41.8007 20.9005C41.8007 32.425 32.4248 41.8008 20.9003 41.8008Z" fill="#D6BA43"/>
<path d="M18.2751 22.9412C18.2751 22.9412 18.9363 24.458 23.5254 24.458C23.5254 24.458 22.6698 21.3467 19.1697 21.5801L18.703 21.6578L18.2751 22.9412Z" fill="#D6BA43"/>
<path d="M17.481 31.9277C17.481 31.9277 14.0565 29.1872 14.7454 26.4276C14.7454 26.4276 16.5437 26.505 18.0167 29.2998L18.275 29.7547L18.2944 31.7015L17.481 31.9277Z" fill="#D6BA43"/>
<path d="M18.7007 18.3569L18.7815 18.6338C19.3629 18.4998 20.0338 18.3316 20.7538 18.1317L20.7126 17.8437C20.7126 17.8437 21.5076 16.5494 20.9661 14.6923C20.9661 14.6923 18.2297 15.2336 18.7007 18.3569Z" fill="#D6BA43"/>
<path d="M67.5898 8.733C67.5898 9.45509 67.3749 10.0482 66.9448 10.5126C66.5151 10.9771 65.9559 11.2091 65.2683 11.2091C64.6149 11.2091 64.0646 11.0027 63.6176 10.5901C63.1703 10.1772 62.9467 9.66155 62.9467 9.04252C62.9467 8.52654 63.1703 7.92469 63.6176 7.2366C63.7206 7.06484 63.7722 6.90991 63.7722 6.7725C63.7722 5.98136 63.2047 5.58596 62.0697 5.58596C60.1439 5.58596 58.8714 6.82402 58.2521 9.30015C57.9425 10.6073 57.7879 12.8945 57.7879 16.1617V18.6894H61.1927C61.8807 18.6894 62.2246 18.8443 62.2246 19.1539C62.2246 19.4634 61.7774 19.618 60.8831 19.618H57.7879V39.7891C57.7879 40.2707 58.2692 40.5115 59.2325 40.5115C60.7114 40.4772 61.5194 40.5459 61.6571 40.7176C61.6915 40.7524 61.7086 40.8211 61.7086 40.9241C61.7086 41.1649 61.5022 41.2852 61.0896 41.2852C60.8831 41.2852 60.7114 41.268 60.5736 41.2336L56.3435 41.1821L50.7203 41.2852C50.1012 41.2852 49.7917 41.1649 49.7917 40.9241C49.7917 40.6489 50.0325 40.5115 50.5138 40.5115C52.2336 40.5115 53.1791 40.4081 53.3513 40.202C53.42 40.1333 53.4544 40.0299 53.4544 39.8925L53.5058 39.2216V19.618C52.2336 19.618 51.4943 19.6008 51.2878 19.5664C51.0813 19.5321 50.9782 19.3947 50.9782 19.1539C50.9782 18.8443 51.2878 18.6894 51.9068 18.6894H53.5578C53.6952 14.3215 54.2799 11.1748 55.3119 9.24863C56.8938 6.29087 59.2668 4.812 62.4311 4.812C63.9443 4.812 65.1824 5.17339 66.1453 5.89548C67.1082 6.61757 67.5898 7.56364 67.5898 8.733Z" fill="#D6BA43"/>
<path d="M85.7984 30.0385C85.7984 33.3748 84.784 36.1692 82.7548 38.4217C80.7256 40.6745 78.1979 41.8008 75.1715 41.8008C72.0416 41.8008 69.4277 40.6745 67.3298 38.4217C65.232 36.1692 64.1831 33.3748 64.1831 30.0385C64.1831 26.5994 65.2063 23.7447 67.2523 21.4751C69.2987 19.205 71.8523 18.07 74.9135 18.07C78.0086 18.07 80.5966 19.2134 82.6773 21.5006C84.7581 23.7878 85.7984 26.6338 85.7984 30.0385ZM81.1042 29.9869C81.1042 26.2037 80.5195 23.2634 79.3501 21.1652C78.4903 19.6176 77.0457 18.844 75.0165 18.844C73.0907 18.844 71.5859 19.8325 70.5024 21.8102C69.4193 23.7878 68.8774 26.5307 68.8774 30.0385C68.8774 33.5122 69.4536 36.2207 70.6058 38.1637C71.758 40.107 73.3659 41.0787 75.4295 41.0787C77.0114 41.0787 78.1807 40.4768 78.9372 39.2731C80.3817 37.0031 81.1042 33.9076 81.1042 29.9869Z" fill="#D6BA43"/>
<path d="M99.0031 40.8211C99.0031 41.1307 98.7794 41.2852 98.3325 41.2852H97.7135C97.6448 41.2852 96.7334 41.2509 94.9793 41.1822L93.3799 41.1307C93.1047 41.1307 91.7292 41.1822 89.2528 41.2852C89.0467 41.3199 88.8402 41.3371 88.6337 41.3371C88.1178 41.3715 87.8601 41.2165 87.8601 40.8727C87.8601 40.6319 88.0491 40.5116 88.4273 40.5116H89.7687C90.7316 40.5116 91.2133 40.3052 91.2133 39.8926C91.2476 39.6861 91.2648 38.3447 91.2648 35.8685V9.61011C91.2648 8.4751 91.2304 7.85607 91.1617 7.75266C91.0583 7.4775 90.7832 7.34009 90.3362 7.34009H89.9237L88.4792 7.39162C87.9975 7.39162 87.7567 7.23668 87.7567 6.92717C87.7567 6.65235 88.1868 6.49742 89.0467 6.46307C90.6973 6.36001 92.2277 5.98145 93.6379 5.32806L94.7214 4.81208L95.1339 4.6575C95.4091 5.65475 95.5293 7.16798 95.495 9.19719L95.4434 12.8599L95.495 38.1386C95.495 39.1702 95.5122 39.7808 95.5469 39.9697C95.5812 40.159 95.7014 40.288 95.9079 40.3567C95.9423 40.391 96.5785 40.4254 97.8165 40.4601C98.6077 40.4601 99.0031 40.5803 99.0031 40.8211Z" fill="#D6BA43"/>
<path d="M108.081 8.73289C108.081 10.2805 107.307 11.0541 105.759 11.0541C105.106 11.0541 104.555 10.8392 104.109 10.4095C103.661 9.97937 103.438 9.45497 103.438 8.83594C103.438 7.2193 104.212 6.41134 105.759 6.41134C107.307 6.41134 108.081 7.18495 108.081 8.73289ZM111.95 40.8725C111.95 41.182 111.658 41.3369 111.073 41.3369C111.107 41.3369 110.695 41.3022 109.835 41.2335C108.803 41.1648 107.943 41.1305 107.255 41.1305L101.89 41.2335C101.718 41.2679 101.512 41.285 101.271 41.285C100.893 41.285 100.704 41.1648 100.704 40.924C100.704 40.5801 101.047 40.408 101.735 40.408C103.042 40.3737 103.756 40.279 103.876 40.1244C103.997 39.9695 104.057 39.2562 104.057 37.9834L104.005 22.3523C103.971 21.4925 103.928 20.9849 103.876 20.8303C103.825 20.6754 103.61 20.5983 103.232 20.5983L101.735 20.6498C101.598 20.6841 101.426 20.7013 101.219 20.7013C100.841 20.7013 100.652 20.5636 100.652 20.2887C100.652 20.0479 100.944 19.9102 101.529 19.8758C103.833 19.7728 105.811 19.2224 107.462 18.2252L107.978 17.9157C108.253 18.4313 108.39 19.377 108.39 20.7528C108.39 20.6841 108.39 20.8559 108.39 21.2688C108.356 21.6814 108.339 22.3523 108.339 23.2809V37.3644C108.339 38.7402 108.364 39.5485 108.416 39.789C108.468 40.0298 108.648 40.1847 108.958 40.2534C109.474 40.3908 110.23 40.4599 111.228 40.4599C111.709 40.4599 111.95 40.5973 111.95 40.8725Z" fill="#D6BA43"/>
<path d="M138.206 39.4277C138.206 39.6685 137.828 39.8059 137.071 39.8406C134.389 40.0124 132.033 40.5971 130.004 41.5943C129.866 41.6634 129.746 41.6977 129.643 41.6977C129.436 41.6977 129.333 41.56 129.333 41.2848L129.385 38.3961C127.803 40.6658 125.584 41.8008 122.73 41.8008C120.185 41.8008 118.362 41.0615 117.261 39.5826C116.814 38.9636 116.548 38.3961 116.462 37.8801C116.376 37.3641 116.333 35.9711 116.333 33.7015V21.8876C116.333 20.6839 116.264 19.9786 116.126 19.7725C115.989 19.5661 115.525 19.4458 114.733 19.4115L114.063 19.463C113.134 19.5317 112.67 19.3943 112.67 19.0501C112.67 18.8096 112.963 18.6891 113.547 18.6891C114.166 18.6891 115.06 18.7234 116.23 18.7921C116.814 18.8268 117.158 18.844 117.261 18.844C118.465 18.844 119.583 18.7921 120.615 18.6891V33.0824C120.615 35.7307 120.787 37.4847 121.131 38.3442C121.681 39.6857 122.799 40.3563 124.484 40.3563C126.307 40.3563 127.648 39.5998 128.508 38.0866C129.127 36.9859 129.436 35.2319 129.436 32.8245V24.8282C129.436 23.6588 129.419 22.7818 129.385 22.1971L129.282 20.4946C129.247 19.9786 129.136 19.6779 128.946 19.592C128.757 19.5058 128.37 19.463 127.786 19.463C126.341 19.4974 125.619 19.3424 125.619 18.9986C125.619 18.7921 125.98 18.6891 126.702 18.6891H127.166C127.441 18.7234 128.353 18.7406 129.901 18.7406C131.964 18.7406 133.237 18.7234 133.718 18.6891V33.0824C133.718 35.5586 133.77 37.1233 133.873 37.7771C133.976 38.4305 134.243 38.8087 134.672 38.9117C135.103 39.0151 136.074 39.0667 137.587 39.0667C138 39.0667 138.206 39.1869 138.206 39.4277Z" fill="#D6BA43"/>
<path d="M173.955 40.8726C173.955 41.1477 173.663 41.2852 173.078 41.2852C173.009 41.2852 172.64 41.268 171.969 41.2336C171.299 41.1993 170.396 41.1821 169.261 41.1821C169.157 41.1821 167.335 41.2165 163.792 41.2852C163.345 41.2852 163.122 41.1649 163.122 40.9241C163.122 40.6489 163.311 40.5115 163.689 40.5115H164.102L165.392 40.46C165.907 40.4253 166.209 40.3051 166.294 40.0986C166.38 39.8925 166.423 39.1701 166.423 37.932V25.1381C166.423 23.1432 166.157 21.7246 165.624 20.882C165.091 20.0393 164.188 19.618 162.915 19.618C162.021 19.618 161.187 19.8847 160.413 20.4175C159.64 20.9507 159.098 21.63 158.788 22.4555C158.651 22.9715 158.582 24.8801 158.582 28.1817V37.932C158.582 39.067 158.599 39.7204 158.634 39.8925C158.737 40.3051 159.046 40.5115 159.562 40.5115H161.058C161.505 40.5115 161.729 40.6489 161.729 40.9241C161.729 41.1649 161.471 41.2852 160.955 41.2852H160.594C160.25 41.2165 159.081 41.1821 157.086 41.1821C156.398 41.1821 155.478 41.1993 154.326 41.2336C153.174 41.268 152.477 41.2852 152.236 41.2852H151.669C151.256 41.2852 151.05 41.1477 151.05 40.8726C151.05 40.7005 151.153 40.5974 151.359 40.5631C151.566 40.5287 152.254 40.5115 153.423 40.5115C153.973 40.4772 154.266 40.3051 154.3 39.9956L154.352 39.2735V24.8801C154.352 22.8852 154.102 21.5098 153.604 20.753C153.105 19.9965 152.219 19.618 150.947 19.618C149.674 19.618 148.617 20.0137 147.774 20.8045C146.932 21.5956 146.51 22.5929 146.51 23.7966V38.448C146.51 39.4796 146.588 40.0902 146.742 40.2791C146.897 40.4684 147.404 40.5631 148.264 40.5631H148.677C148.883 40.5287 149.072 40.5115 149.244 40.5115C149.623 40.5115 149.812 40.6489 149.812 40.9241C149.812 41.1649 149.588 41.2852 149.141 41.2852H148.625C147.8 41.1821 146.51 41.1477 144.756 41.1821L139.701 41.2852C139.219 41.2852 138.978 41.1477 138.978 40.8726C138.978 40.6318 139.202 40.5115 139.649 40.5115C140.956 40.5115 141.713 40.4513 141.919 40.331C142.125 40.2104 142.245 39.9956 142.28 39.686V26.2731C142.28 23.6935 142.228 22.1803 142.125 21.733C142.022 21.2861 141.523 21.0625 140.629 21.0625H139.907C139.597 21.0968 139.27 21.114 138.927 21.114C138.48 21.114 138.256 20.9938 138.256 20.753C138.256 20.5465 138.333 20.4263 138.488 20.3919C138.643 20.3576 139.202 20.306 140.165 20.237C140.956 20.2026 141.945 19.9965 143.131 19.618C144.318 19.2397 144.997 18.913 145.169 18.6379C145.547 18.2597 145.822 18.0704 145.994 18.0704C146.166 18.0704 146.269 18.2081 146.304 18.4829C146.338 18.7581 146.372 19.7214 146.407 21.372C147.783 19.171 149.898 18.0704 152.752 18.0704C155.813 18.0704 157.671 19.2226 158.324 21.5269C159.665 19.2226 161.815 18.0704 164.772 18.0704C167.318 18.0704 169.037 18.9817 169.931 20.8045C170.413 21.7677 170.654 23.3669 170.654 25.6022V38.3446C170.654 39.5139 170.714 40.1589 170.834 40.2791C170.955 40.3997 171.496 40.4944 172.459 40.5631L173.388 40.5115C173.766 40.4772 173.955 40.5974 173.955 40.8726Z" fill="#D6BA43"/>
<path d="M178 40.4197V36.3235H178.587V37.7676H178.598C178.664 37.6716 178.741 37.598 178.831 37.5461C178.922 37.4942 179.024 37.4683 179.139 37.4683C179.281 37.4683 179.391 37.4931 179.47 37.5434C179.549 37.5931 179.613 37.6561 179.663 37.733C179.701 37.7943 179.726 37.8748 179.737 37.9748C179.749 38.0743 179.755 38.2296 179.755 38.4406V39.5511C179.755 39.712 179.747 39.8407 179.732 39.9364C179.716 40.0324 179.691 40.1126 179.657 40.1779C179.557 40.3622 179.386 40.4541 179.145 40.4541C178.999 40.4541 178.888 40.4253 178.811 40.3678C178.734 40.3103 178.66 40.2395 178.587 40.1551V40.4197H178ZM179.168 38.4004C179.168 38.3081 179.148 38.2278 179.107 38.1588C179.067 38.0898 178.991 38.055 178.88 38.055C178.796 38.055 178.726 38.0849 178.67 38.1444C178.614 38.2037 178.587 38.2795 178.587 38.3716V39.5048C178.587 39.6124 178.614 39.6998 178.667 39.7667C178.721 39.8337 178.792 39.8672 178.88 39.8672C178.98 39.8672 179.053 39.8308 179.099 39.758C179.145 39.685 179.168 39.5893 179.168 39.4704V38.4004Z" fill="white"/>
<path d="M179.922 37.5026H180.543L180.945 39.3205H180.957L181.354 37.5026H181.958L181.118 40.9257C181.087 41.056 181.044 41.1632 180.989 41.2477C180.933 41.3322 180.869 41.4012 180.796 41.4548C180.723 41.5085 180.645 41.5461 180.563 41.567C180.48 41.5881 180.395 41.5986 180.307 41.5986H180.146V41.0466H180.278C180.335 41.0466 180.386 41.0387 180.428 41.0234C180.47 41.0079 180.508 40.9736 180.543 40.92C180.573 40.866 180.602 40.7902 180.629 40.6924C180.656 40.5947 180.686 40.4597 180.721 40.2869L179.922 37.5026Z" fill="white"/>
<path fill-rule="evenodd" clip-rule="evenodd" d="M190.988 39.0061C190.988 40.8678 189.909 41.7998 187.745 41.7998C187.425 41.7998 187.1 41.7336 186.771 41.5976C185.742 41.1655 185.205 40.3473 185.154 39.1428H186.479C186.49 39.4917 186.653 39.8359 186.967 40.173C187.283 40.5109 187.629 40.6792 188.007 40.6792C189.013 40.6792 189.519 40.1251 189.519 39.0198C189.519 38.4968 189.176 38.0296 188.486 37.6155C187.857 37.2468 187.221 36.8834 186.582 36.5234C185.903 36.0102 185.563 35.3761 185.563 34.6207C185.563 33.8916 185.82 33.3167 186.333 32.8932C186.848 32.4706 187.503 32.2595 188.299 32.2595C188.948 32.2595 189.507 32.4586 189.977 32.8533C190.448 33.2487 190.682 33.743 190.682 34.3371H189.375C189.324 34.0857 189.203 33.8628 189.004 33.6698C188.804 33.4765 188.569 33.3812 188.299 33.3812C187.919 33.3812 187.612 33.4948 187.374 33.7237C187.137 33.9522 187.018 34.2473 187.018 34.6063C187.018 35.0108 187.363 35.4231 188.049 35.8359C189.232 36.5549 189.869 36.9548 189.955 37.0358C190.644 37.5928 190.988 38.2514 190.988 39.0061ZM197.948 38.2781C197.948 39.2953 197.707 40.1043 197.221 40.708C196.668 41.3814 195.86 41.7185 194.792 41.7185C193.872 41.7185 193.141 41.3455 192.597 40.5986C192.12 39.9512 191.885 39.1814 191.885 38.2914V32.4067H193.308V38.263C193.308 38.8304 193.419 39.2848 193.643 39.6265C193.925 40.0591 194.347 40.2743 194.908 40.2743C195.452 40.2743 195.867 40.0591 196.16 39.6265C196.402 39.2589 196.525 38.8039 196.525 38.263V32.4067H197.948V38.2781ZM206.305 41.6785H204.866V35.173L202.685 41.4083L200.385 35.1342V41.6785H199.062V32.4067H200.888L202.681 37.3955L204.487 32.4067H206.305V41.6785ZM211.501 38.5466L210.517 34.6063L209.558 38.5466H211.501ZM213.804 41.6785H212.321L211.809 39.5603H209.251L208.729 41.6785H207.199L209.747 32.4067H211.245L213.804 41.6785ZM219.15 37.0495C219.15 36.0147 219.019 35.2404 218.757 34.7293C218.389 34.0093 217.716 33.6491 216.734 33.6491H216.008V40.41H216.734C217.694 40.41 218.364 40.0546 218.741 39.3437C219.015 38.8304 219.15 38.0674 219.15 37.0495ZM220.634 36.9679C220.634 38.4621 220.429 39.5546 220.022 40.2491C219.451 41.2015 218.429 41.6785 216.953 41.6785H214.584V32.4067H217.026C218.286 32.4067 219.233 32.8968 219.863 33.879C220.376 34.6894 220.634 35.7195 220.634 36.9679ZM227.783 41.6785H226.373V37.5896H223.084V41.6785H221.673V32.4067H223.084V36.2668H226.373V32.4067H227.783V41.6785ZM234.975 38.2781C234.975 39.2953 234.733 40.1043 234.249 40.708C233.696 41.3814 232.885 41.7185 231.82 41.7185C230.898 41.7185 230.166 41.3455 229.622 40.5986C229.149 39.9512 228.91 39.1814 228.91 38.2914V32.4067H230.335V38.263C230.335 38.8304 230.447 39.2848 230.67 39.6265C230.953 40.0591 231.374 40.2743 231.937 40.2743C232.479 40.2743 232.895 40.0591 233.187 39.6265C233.428 39.2589 233.55 38.8039 233.55 38.263V32.4067H234.975V38.2781ZM240.263 35.2692C240.263 34.9007 240.188 34.5618 240.031 34.2547C239.836 33.8527 239.571 33.6491 239.232 33.6491H237.369V36.7918H239.232C239.589 36.7918 239.863 36.6075 240.045 36.2408C240.192 35.9617 240.263 35.6359 240.263 35.2692ZM241.803 35.2141C241.803 35.8262 241.687 36.3821 241.449 36.8809C241.21 37.3797 240.855 37.7698 240.381 38.0492L241.719 41.6785H240.136L238.881 38.0608H237.369V41.6785H235.972V32.4067H239.682C240.37 32.4067 240.913 32.731 241.31 33.3812C241.64 33.9102 241.803 34.5214 241.803 35.2141ZM246.856 38.5466L245.871 34.6063L244.911 38.5466H246.856ZM249.158 41.6785H247.675L247.163 39.5603H244.603L244.084 41.6785H242.554L245.1 32.4067H246.599L249.158 41.6785Z" fill="white"/>
</svg>
